<?xml version="1.0" encoding="utf-8"?>
<!-- Generator: Adobe Illustrator 25.4.1, SVG Export Plug-In . SVG Version: 6.00 Build 0)  -->
<svg version="1.1" xmlns="http://www.w3.org/2000/svg" xmlns:xlink="http://www.w3.org/1999/xlink" x="0px" y="0px" width="233.7px"
	 height="62.4px" viewBox="0 0 233.7 62.4" style="enable-background:new 0 0 233.7 62.4;" xml:space="preserve">
<style type="text/css">
	.st0{fill:#F3B0A3;}
	.st1{display:none;}
	.st2{fill:none;stroke:#000000;stroke-width:8;stroke-linecap:round;stroke-miterlimit:10;}
	.st3{fill:none;stroke:#000000;stroke-width:8;stroke-linecap:round;stroke-linejoin:round;stroke-miterlimit:10;}
	.st4{fill:none;stroke:#000000;stroke-width:2;stroke-miterlimit:10;}
	.st5{fill:#FFFFFF;}
	.st6{fill:#5F724A;}
	.st7{opacity:0.7;}
	.st8{fill:none;stroke:#84A59D;stroke-width:3.5;stroke-linecap:round;stroke-linejoin:round;stroke-miterlimit:10;}
	.st9{fill:url(#SVGID_1_);}
	.st10{fill:#E44A2E;}
</style>
<g id="Layer_2">
	<rect x="-791.9" y="-692.6" class="st0" width="612" height="792"/>
</g>
<g id="Layer_1" class="st1">
	
		<image style="display:inline;overflow:visible;opacity:0.19;" width="1241" height="365" xlink:href="65B9276.jpg"  transform="matrix(0.3693 0 0 0.3693 -715.0952 -356.5096)">
	</image>
</g>
<g id="Layer_3">
	<g>
		<path class="st2" d="M-636.9-318.1c0,0-17,11.2-29,68.2c-1.6,7.2-7.2,11.7-14.5,12.7c-10.9,1.6-14-6.9-11.2-12.3
			c4.1-7.7,17.4-7.6,28.1,3c9.7,9.6,38,16.5,48.1,2.7c8-10.9,11.9-39.3-40.4-42.5l0.3-0.7c1.3,0.3,39.9,11.3,45.8-17.7
			c4.4-21.6-14.9-38.2-38-36.4c-27.2,2.1-55.1,33.8-29.5,60.2"/>
		<path class="st3" d="M-564.8-299c0,0-19.2-8.1-29.3,16.4c-10.4,25.2-7,40.9,8.9,42.9c16.4,2.1,23.5-18.4,25.9-29.6
			s4.2-30.2-6.5-29.2c-5.5,0.5-17.1,48.6,10.1,46.6c19.8-2.4,32.1-51,32.1-51l-23.9,64.1c0,0,19.5-61.1,40-62.6
			c14.3-1,18.6,9.7,9.6,28.9c-2.6,5.5-6.1,14.1-8.2,22.2c-2.3,8.7,4.9,13.6,12.7,8.2c7.4-5.1,19-24.8,32.9-59.7
			c-8.5,23.5-29.9,62.2-8.2,61.2c11-1.5,24.3-25.2,24.3-25.2s9.1-36.5,29.6-35c14,1,15.8,13.9,4.3,29"/>
		<path class="st3" d="M-444.5-265.9c0,0-5.5,26.8,20.1,25.8s36.5-29.5,36.5-29.5s6.8-20.6,21.7-28.5c14.6-7.8,27.2,1.5,24.8,16.6
			c-2.7,16.9-19.7,44.7-35.3,41.5c-19.6-4-11.1-29.5-11.1-29.5"/>
		<path class="st3" d="M-332-296.6c0,0-26.7,52.2-9.3,56.4c12,2.9,29-27,29-27"/>
		<path class="st3" d="M-279.4-271c0,0-10.3,23.3-24.6,29.4c-10.8,4.6-17.8-3.9-10.7-19.9c2.9-6.6,23.6-61.4,23.6-61.4"/>
		<line class="st3" x1="-311" y1="-303.8" x2="-288.3" y2="-302.8"/>
		<circle cx="-455" cy="-317.6" r="6.3"/>
	</g>
	<text transform="matrix(1 0 0 1 -556.0375 -184.3447)" style="font-family:'Abel-Regular'; font-size:41.6167px;">Cookies</text>
	<line class="st4" x1="-563.6" y1="-197.6" x2="-584.9" y2="-197.6"/>
	<line class="st4" x1="-387.7" y1="-197.6" x2="-409.1" y2="-197.6"/>
	<g>
		<g>
			<path d="M132.3-339.2c-0.4,0.9-0.9,1.6-1.5,2.3s-1.4,1.2-2.3,1.5s-1.8,0.6-2.8,0.6h-2.1c-1,0-1.9-0.2-2.8-0.6s-1.6-0.9-2.3-1.5
				s-1.2-1.4-1.5-2.3c-0.4-0.9-0.6-1.8-0.6-2.8v-15.6c0-1,0.2-1.9,0.6-2.8c0.4-0.9,0.9-1.6,1.5-2.3s1.4-1.2,2.3-1.5s1.8-0.6,2.8-0.6
				h2.1c1,0,1.9,0.2,2.8,0.6s1.6,0.9,2.3,1.5s1.2,1.4,1.5,2.3c0.4,0.9,0.6,1.8,0.6,2.8v1.2l-2.6,0.4v-1.6c0-0.7-0.1-1.3-0.4-1.8
				s-0.6-1.1-1-1.5c-0.4-0.4-0.9-0.8-1.5-1c-0.6-0.2-1.2-0.4-1.8-0.4h-1.8c-0.7,0-1.3,0.1-1.8,0.4c-0.6,0.2-1.1,0.6-1.5,1
				s-0.8,0.9-1,1.5c-0.2,0.6-0.4,1.2-0.4,1.8v15.6c0,0.6,0.1,1.3,0.4,1.8c0.2,0.6,0.6,1.1,1,1.5s0.9,0.8,1.5,1
				c0.6,0.2,1.2,0.4,1.8,0.4h1.8c0.6,0,1.3-0.1,1.8-0.4c0.6-0.2,1.1-0.6,1.5-1c0.4-0.4,0.8-0.9,1-1.5s0.4-1.2,0.4-1.8v-1.6l2.6,0.4
				v1.2C132.8-341,132.6-340.1,132.3-339.2z"/>
			<path d="M154.1-339.2c-0.4,0.9-0.9,1.6-1.5,2.3s-1.4,1.2-2.3,1.5s-1.8,0.6-2.8,0.6h-2.1c-1,0-1.9-0.2-2.8-0.6s-1.6-0.9-2.3-1.5
				s-1.2-1.4-1.5-2.3c-0.4-0.9-0.6-1.8-0.6-2.8v-15.6c0-1,0.2-1.9,0.6-2.8c0.4-0.9,0.9-1.6,1.5-2.3s1.4-1.2,2.3-1.5s1.8-0.6,2.8-0.6
				h2.1c1,0,1.9,0.2,2.8,0.6s1.6,0.9,2.3,1.5s1.2,1.4,1.5,2.3c0.4,0.9,0.6,1.8,0.6,2.8v15.6C154.6-341,154.4-340.1,154.1-339.2z
				 M152-357.7c0-0.7-0.1-1.3-0.4-1.8s-0.6-1.1-1-1.5c-0.4-0.4-0.9-0.8-1.5-1c-0.6-0.2-1.2-0.4-1.8-0.4h-1.8c-0.7,0-1.3,0.1-1.8,0.4
				c-0.6,0.2-1.1,0.6-1.5,1s-0.8,0.9-1,1.5c-0.2,0.6-0.4,1.2-0.4,1.8v15.6c0,0.6,0.1,1.3,0.4,1.8c0.2,0.6,0.6,1.1,1,1.5
				s0.9,0.8,1.5,1c0.6,0.2,1.2,0.4,1.8,0.4h1.8c0.6,0,1.3-0.1,1.8-0.4c0.6-0.2,1.1-0.6,1.5-1c0.4-0.4,0.8-0.9,1-1.5s0.4-1.2,0.4-1.8
				V-357.7z"/>
			<path d="M176.3-339.2c-0.4,0.9-0.9,1.6-1.5,2.3s-1.4,1.2-2.3,1.5s-1.8,0.6-2.8,0.6h-2.1c-1,0-1.9-0.2-2.8-0.6s-1.6-0.9-2.3-1.5
				s-1.2-1.4-1.5-2.3c-0.4-0.9-0.6-1.8-0.6-2.8v-15.6c0-1,0.2-1.9,0.6-2.8c0.4-0.9,0.9-1.6,1.5-2.3s1.4-1.2,2.3-1.5s1.8-0.6,2.8-0.6
				h2.1c1,0,1.9,0.2,2.8,0.6s1.6,0.9,2.3,1.5s1.2,1.4,1.5,2.3c0.4,0.9,0.6,1.8,0.6,2.8v15.6C176.8-341,176.7-340.1,176.3-339.2z
				 M174.2-357.7c0-0.7-0.1-1.3-0.4-1.8s-0.6-1.1-1-1.5c-0.4-0.4-0.9-0.8-1.5-1c-0.6-0.2-1.2-0.4-1.8-0.4h-1.8
				c-0.7,0-1.3,0.1-1.8,0.4c-0.6,0.2-1.1,0.6-1.5,1s-0.8,0.9-1,1.5c-0.2,0.6-0.4,1.2-0.4,1.8v15.6c0,0.6,0.1,1.3,0.4,1.8
				c0.2,0.6,0.6,1.1,1,1.5s0.9,0.8,1.5,1c0.6,0.2,1.2,0.4,1.8,0.4h1.8c0.6,0,1.3-0.1,1.8-0.4c0.6-0.2,1.1-0.6,1.5-1
				c0.4-0.4,0.8-0.9,1-1.5s0.4-1.2,0.4-1.8V-357.7z"/>
			<path d="M183.1-335.3v-29.1h2.6v29.1H183.1z M197.3-335.3l-11-14.6l11-14.6h3.3l-11.2,14.6l11.2,14.6H197.3z"/>
			<path d="M204.7-335.3v-29.1h2.6v29.1H204.7z"/>
			<path d="M214-335.3v-29.1h16.4v2.5h-13.8v10.8h11.2v2.5h-11.2v10.8h13.8v2.5H214z"/>
			<path d="M251.4-342c0,1-0.2,1.9-0.6,2.8c-0.4,0.9-0.9,1.6-1.6,2.3c-0.7,0.7-1.4,1.2-2.3,1.5c-0.9,0.4-1.8,0.6-2.8,0.6H242
				c-1,0-1.9-0.2-2.8-0.6s-1.7-0.9-2.3-1.5s-1.2-1.4-1.6-2.3c-0.4-0.9-0.6-1.8-0.6-2.8v-1.2l2.6-0.4v1.6c0,0.6,0.1,1.3,0.4,1.8
				c0.3,0.6,0.6,1.1,1.1,1.5s1,0.8,1.6,1c0.6,0.2,1.2,0.4,1.9,0.4h1.8c0.7,0,1.3-0.1,1.8-0.4c0.6-0.2,1.1-0.6,1.5-1
				c0.4-0.4,0.8-0.9,1.1-1.5c0.3-0.6,0.4-1.2,0.4-1.8v-0.9c0-1-0.2-1.8-0.6-2.5c-0.4-0.7-0.9-1.2-1.6-1.7s-1.4-0.9-2.2-1.2
				s-1.7-0.7-2.5-1c-0.9-0.3-1.7-0.7-2.5-1.1c-0.8-0.4-1.6-0.9-2.2-1.5c-0.7-0.6-1.2-1.3-1.6-2.2s-0.6-1.9-0.6-3.1v-0.5
				c0-1,0.2-1.9,0.6-2.8c0.4-0.9,0.9-1.6,1.5-2.3s1.4-1.2,2.3-1.5s1.8-0.6,2.8-0.6h1.9c1,0,1.9,0.2,2.8,0.6s1.6,0.9,2.3,1.5
				c0.6,0.7,1.2,1.4,1.5,2.3c0.4,0.9,0.6,1.8,0.6,2.8v0.8l-2.6,0.4v-1.2c0-0.7-0.1-1.3-0.4-1.8s-0.6-1.1-1-1.5s-0.9-0.8-1.5-1
				c-0.6-0.2-1.2-0.4-1.8-0.4h-1.6c-0.7,0-1.3,0.1-1.8,0.4c-0.6,0.2-1.1,0.6-1.5,1s-0.8,0.9-1,1.5c-0.2,0.6-0.4,1.2-0.4,1.8v0.5
				c0,0.9,0.2,1.7,0.6,2.4c0.4,0.6,0.9,1.2,1.6,1.6c0.6,0.5,1.4,0.8,2.2,1.2s1.7,0.7,2.5,1s1.7,0.7,2.5,1.1c0.8,0.4,1.6,0.9,2.2,1.5
				s1.2,1.3,1.6,2.2c0.4,0.9,0.6,1.9,0.6,3.2V-342z"/>
		</g>
		<g>
			<rect x="84.6" y="-349.6" width="21.3" height="2"/>
		</g>
		<g>
			<rect x="260.5" y="-349.6" width="21.3" height="2"/>
		</g>
	</g>
	<g>
		<g>
			<path d="M35.2-380c-11,0-23.6-4.2-30.8-10.3c-3.2,4.9-8.4,8.1-15,9.1c-6.3,0.9-11.6-1-14.5-5.1c-2.7-3.8-2.9-8.9-0.7-13
				c2.1-4,6-6.6,10.9-7.3c4.9-0.7,10.3,0.4,15.4,3.2c2.4-10.6,5-19.6,7.6-27.2l-0.1,0l3.4-9l0.1,0c9.4-23.4,18.3-29.5,18.8-29.9
				c1.8-1.2,4.3-0.7,5.5,1.1c1.2,1.8,0.7,4.3-1.1,5.5c-0.2,0.2-7.3,5.6-15.3,24.9c0.4,0.1,0.8,0.2,1.3,0.2c1.7,0.2,3.3,0.4,4.8,0.7
				c7.1,0.7,15.6,0.4,22-3.6c4.4-2.8,7.1-7,8.3-12.9c1.6-7.9-0.4-15.4-5.6-21.3c-6.5-7.3-17-11.2-28.2-10.3
				C7.2-484-7.5-473.4-12.4-460.5c-2.7,7-3.5,17.7,7.3,28.9c1.5,1.6,1.5,4.1-0.1,5.7c-1.6,1.5-4.1,1.5-5.7-0.1
				c-10.7-11.1-13.9-24.3-9-37.3c6-15.8,23.3-28.3,41.1-29.7c13.6-1.1,26.7,3.8,34.8,13c6.9,7.8,9.5,17.8,7.4,28.2
				c-1.6,8-5.6,14.1-11.9,18c-1.9,1.2-4,2.2-6.1,2.9c8.3,4.2,12.6,9.4,14.8,14.1c4.6,9.8,1.7,20.9-3.2,27.5
				c-4,5.4-10.5,8.6-18.8,9.3C37.3-380,36.3-380,35.2-380z M7.5-398.3c0.4,0.3,0.8,0.7,1.1,1.1c5.2,5.1,18.1,10.1,29.1,9.2
				c4.1-0.3,9.7-1.6,13-6c2.6-3.5,6-11.6,2.4-19.4c-2.7-5.7-9.9-12.7-28.8-15.6c-1.7-0.2-3.3-0.4-4.8-0.6c-1-0.1-2.1-0.2-3.2-0.3
				C13.2-421.7,10.2-411.2,7.5-398.3z M-12.1-398.9c-0.6,0-1.2,0-1.7,0.1c-1.6,0.3-3.9,1-5,3.2c-0.8,1.5-0.7,3.4,0.2,4.7
				c1.2,1.6,3.6,2.3,6.8,1.8c4.6-0.7,8.1-2.9,9.9-6.4C-5.6-397.9-9.3-398.9-12.1-398.9z"/>
		</g>
		<g>
			<path d="M121.6-383c-0.4,0-0.9-0.1-1.3-0.2c-2.1-0.7-3.2-2.9-2.5-5c0.1-0.3,1.5-4.5,3.8-10.7c-2.4,1.5-5,2.5-7.7,2.8
				c-0.1,0-0.1,0-0.2,0c-2.7,0.2-5.2,0-7.4-0.6c-5.8,9.4-13.7,14-22.9,12.9c-6.9-0.9-12.2-4.1-15.3-9.4c-4.9-8.5-3.8-22,3.2-39
				c3.8-9.3,9.4-15.4,16.4-18.4c9.3-3.8,17.8-0.4,18.2-0.2c0.2,0.1,0.4,0.2,0.6,0.3c2,0.5,3.7,1.5,5.1,3.1c6,6.7,3.8,22.2,2,30.8
				c-1,4.6-2.2,8.8-3.7,12.5c0.9,0.1,2,0.1,3.1,0.1c6.4-0.8,12.6-8.9,17.7-18.9l11-29.5c0.7-2,2.9-3.1,4.9-2.4
				c2,0.6,3.2,2.7,2.7,4.8c-0.1,0.5-0.4,1.5-0.8,2.9c4.3-4,8.5-6.1,12.7-6.4c9.2-0.6,13.7,3,15.9,6.2c4.2,6.2,3.4,16-2.4,28.4
				c-1.2,2.7-5.5,12.1-8,21.5c-0.6,2.3-0.3,4.2,0.8,5c1.2,0.9,3.5,0.4,5.7-1.1c2.7-1.9,13.1-11.6,31.4-57.9c0.8-2,3.1-3,5.1-2.3
				c2,0.8,3.1,3,2.3,5.1c-1.7,4.8-3.9,10-6.2,15.6c-5.6,13.4-14.1,33.7-10.3,39c0.2,0.3,1,1.4,4.2,1.3c6.1-1,15.8-13.7,20.9-22.7
				c1.3-5,11.3-39.1,33.6-37.5c6.9,0.5,11.9,3.6,14.2,8.7c3.1,7,0.6,16.7-7,26.8c-1.3,1.8-3.8,2.1-5.6,0.8c-1.8-1.3-2.1-3.8-0.8-5.6
				c6.7-8.8,7.6-15.4,6.1-18.6c-1.1-2.4-3.6-3.7-7.5-4c-16.6-1.2-25.3,31.6-25.4,32c-0.1,0.3-0.2,0.7-0.4,1
				c-1.5,2.6-14.6,25.4-27.2,27.2c-0.1,0-0.2,0-0.4,0c-6.4,0.3-9.7-2.4-11.3-4.7c-1.4-2-2.1-4.5-2.3-7.4c-3.3,4.7-6.3,8.1-9,9.9
				c-5.1,3.5-10.8,3.9-14.9,1.1c-3.9-2.8-5.5-8-4-13.6c2.7-10.1,7.2-20.1,8.5-22.9c4.4-9.4,5.5-16.8,3-20.4c-1.8-2.6-5.8-3-8.8-2.7
				c-9.5,0.7-20.7,20.2-28.9,39.5l-7.6,20.5C124.8-384,123.3-383,121.6-383z M96.5-444.4c-5.3,0.2-12.7,2.9-17.8,15.3
				c-6,14.4-7.3,25.8-3.7,31.9c1.8,3.1,4.9,4.9,9.4,5.5c6.7,0.8,11.5-3.4,14.8-8.8c-4-3.7-6.4-9.4-7-17.1
				C91.6-425.1,93.1-437.1,96.5-444.4z M104.6-442.6c-2.8,4.1-7.1,22.3-2.5,32.4c0.3,0.6,0.6,1.2,0.9,1.8c1.5-4,2.4-7.6,2.8-9.8
				c2.4-11.2,2.3-21-0.2-23.8C105.4-442.2,105.1-442.5,104.6-442.6z"/>
		</g>
		<g>
			<path d="M295-383.8c-1.1,0-2.3-0.1-3.4-0.3c-6-1.2-10.4-4.3-13.2-9c-1.4-2.4-2.2-5-2.6-7.6c-6.5,7.9-16.5,16.1-30.9,16.7
				c-8.6,0.3-15.1-2.1-19.4-7.2c-7.6-9-4.9-22.9-4.8-23.4c0.4-2.2,2.6-3.6,4.7-3.1c2.2,0.4,3.6,2.6,3.1,4.7c0,0.2-2,10.7,3.1,16.7
				c2.6,3.1,7,4.6,13,4.3c22.1-0.9,32.3-25.4,32.9-26.9c0.7-2,7.8-22.3,23.6-30.7c8.2-4.4,16.9-4.3,23.1,0.1
				c6.1,4.3,8.9,12,7.5,20.6c-2.1,12.9-11.9,32.2-24.3,40.8C303.2-385.3,299-383.8,295-383.8z M285.1-416.4
				C285.1-416.3,285.1-416.3,285.1-416.4c-1.1,3.3-3.2,13.2,0.3,19.2c1.6,2.7,4.1,4.4,7.8,5.2c2.9,0.6,6.1-0.3,9.6-2.8
				c10.1-7,19.2-24.3,20.9-35.4c0.9-5.6-0.7-10.3-4.2-12.9c-3.8-2.7-9.1-2.5-14.7,0.4C291.6-435.5,285.2-416.6,285.1-416.4z"/>
		</g>
		<g>
			<path d="M329.5-384c-0.9,0-1.7-0.1-2.6-0.3c-3.4-0.8-6-3-7.5-6.2c-6.7-14.5,12-51.8,14.1-56c1-2,3.4-2.7,5.4-1.7
				c2,1,2.7,3.4,1.7,5.4c-7.4,14.5-17.8,40.7-14,49c0.5,1,1.1,1.5,2.1,1.8c5.9,1.4,18-13.7,24.5-25.1c1.1-1.9,3.5-2.6,5.5-1.5
				c1.9,1.1,2.6,3.5,1.5,5.5C357.4-408.1,343-384,329.5-384z"/>
		</g>
		<g>
			<path d="M359.7-384.3c-3.3,0-6.2-1.1-8.4-3.4c-4.8-4.8-4.9-13.3-0.5-23.4c2.9-6.4,23.3-60.6,23.5-61.1c0.8-2.1,3.1-3.1,5.2-2.3
				c2.1,0.8,3.1,3.1,2.3,5.2c-0.8,2.2-20.7,54.9-23.7,61.6c-3.5,8-2.8,12.8-1.1,14.5c1.8,1.8,5.2,0.6,6.6,0.1
				c10.5-4.5,19.8-21.3,22.5-27.4c0.9-2,3.3-2.9,5.3-2c2,0.9,2.9,3.3,2,5.3c-0.4,1-11.1,24.9-26.6,31.5
				C364.3-384.8,361.9-384.3,359.7-384.3z"/>
		</g>
		<g>
			<path d="M380.9-446.8c-0.1,0-0.1,0-0.2,0l-22.8-1c-2.2-0.1-3.9-2-3.8-4.2c0.1-2.2,1.9-3.9,4.2-3.8l22.8,1c2.2,0.1,3.9,2,3.8,4.2
				C384.8-448.5,383-446.8,380.9-446.8z"/>
		</g>
		<circle cx="214.1" cy="-465.5" r="6.3"/>
	</g>
	<g>
		<g>
			<path d="M-522.4-410.6h-15c-14.3,0-26-11.7-26-26v0c0-14.3,11.7-26,26-26h15c14.3,0,26,11.7,26,26v0
				C-496.4-422.3-508.1-410.6-522.4-410.6z"/>
			<path d="M-563.9-524.2c4.4-1,24.2,9.1,21.7,76c-0.2,2.8-4.9,3.8-6.3,1.5C-582.3-500.5-569.4-522.8-563.9-524.2z"/>
			<path d="M-496-524.2c-4.4-1-24.2,9.1-21.7,76c0.2,2.8,4.9,3.8,6.3,1.5C-477.6-500.5-490.5-522.8-496-524.2z"/>
		</g>
		<g>
			<g>
				<path d="M-426.9-410.6h-15c-14.3,0-26-11.7-26-26v0c0-14.3,11.7-26,26-26h15c14.3,0,26,11.7,26,26v0
					C-400.9-422.3-412.6-410.6-426.9-410.6z"/>
			</g>
			<path d="M-465.5-447.6c0,0-2-26.3,3.5-28.2c5.5-1.9,18.8,16,18.8,16s1.8,6.6-8.8,10.2C-462.5-445.9-465.5-447.6-465.5-447.6z"/>
			<path d="M-403.4-447.6c0,0,2-26.3-3.5-28.2c-5.5-1.9-18.8,16-18.8,16s-1.8,6.6,8.8,10.2C-406.4-445.9-403.4-447.6-403.4-447.6z"
				/>
		</g>
	</g>
	<path class="st5" d="M-491.3-1003c-68.9,0-124.8,55.9-124.8,124.8s55.9,124.8,124.8,124.8s124.8-55.9,124.8-124.8
		S-422.4-1003-491.3-1003z M-501.7-847.5L-501.7-847.5c0,14.3-11.7,26-26,26h-15c-14.3,0-26-11.7-26-26v0c0-7.9,3.5-14.9,9.1-19.7
		c-26.5-46.9-14.8-66.6-9.7-67.8c4.1-1,21.3,7.6,21.9,62c1.5-0.3,3-0.4,4.6-0.4h15c1.5,0,3,0.1,4.4,0.4
		c0.6-54.3,17.9-62.9,21.9-61.9c5.2,1.2,16.8,20.9-9.6,67.7C-505.3-862.5-501.7-855.4-501.7-847.5z M-406.3-847.5
		c0,14.3-11.7,26-26,26h-15c-14.3,0-26-11.7-26-26v0c0-3.9,0.9-7.7,2.5-11c0,0,0,0,0,0s-2-26.3,3.5-28.2c4.2-1.4,12.9,8.5,16.8,13.4
		c1.1-0.1,2.1-0.2,3.2-0.2h15c1.1,0,2.1,0.1,3.2,0.2c3.9-4.9,12.6-14.8,16.8-13.4c5.3,1.8,3.6,26.7,3.5,28.1
		C-407.2-855.2-406.3-851.4-406.3-847.5L-406.3-847.5z"/>
	<g>
		<g>
			<path d="M-28.8-564.8c-12.8,0-27.6-4.9-36-12c-3.7,5.7-9.9,9.5-17.5,10.6c-7.3,1.1-13.5-1.1-17-6c-3.1-4.4-3.4-10.3-0.9-15.2
				c2.5-4.6,7-7.6,12.7-8.5c5.8-0.9,12.1,0.5,18,3.7c2.8-12.4,5.8-22.8,8.8-31.6l-0.1,0l3.9-10.4l0.1,0c11-27.3,21.3-34.4,21.9-34.8
				c2.2-1.4,5.1-0.8,6.5,1.3c1.4,2.1,0.8,5-1.3,6.4c-0.3,0.2-8.5,6.5-17.9,29c0.5,0.1,1,0.2,1.5,0.3c2,0.2,3.8,0.5,5.6,0.8
				c8.3,0.8,18.3,0.4,25.7-4.2c5.1-3.2,8.3-8.1,9.7-15c1.9-9.1-0.5-17.9-6.5-24.8c-7.6-8.5-19.9-13-32.9-12
				c-17.1,1.3-34.3,13.6-40,28.6c-3.1,8.2-4.1,20.6,8.5,33.7c1.8,1.8,1.7,4.8-0.1,6.6c-1.9,1.8-4.8,1.7-6.6-0.1
				c-12.5-12.9-16.3-28.3-10.5-43.4c7-18.4,27.2-33,48-34.6c15.9-1.2,31.1,4.4,40.6,15.1c8.1,9.1,11.2,20.7,8.7,32.8
				c-1.9,9.3-6.6,16.4-13.9,21c-2.2,1.4-4.6,2.5-7.1,3.4c9.7,4.9,14.7,11,17.3,16.4c5.4,11.4,2,24.3-3.7,32.1
				c-4.6,6.3-12.2,10-21.9,10.8C-26.3-564.9-27.5-564.8-28.8-564.8z M-61.2-586.2c0.4,0.4,0.9,0.8,1.3,1.2c6.1,6,21.2,11.7,34,10.7
				c4.8-0.4,11.4-1.9,15.1-7c3-4.1,7-13.5,2.8-22.6c-3.1-6.7-11.6-14.7-33.7-18.2c-2-0.2-3.8-0.5-5.6-0.7c-1.2-0.1-2.5-0.3-3.8-0.4
				C-54.4-613.4-58-601.2-61.2-586.2z M-84.1-586.8c-0.7,0-1.4,0-2,0.1c-1.9,0.3-4.5,1.2-5.8,3.7c-0.9,1.7-0.8,3.9,0.2,5.5
				c1.4,1.9,4.2,2.7,8,2.1c5.4-0.8,9.4-3.4,11.6-7.4C-76.5-585.7-80.8-586.8-84.1-586.8z"/>
		</g>
		<g>
			<path d="M72.2-568.3c-0.5,0-1-0.1-1.5-0.3c-2.4-0.8-3.7-3.4-2.9-5.8c0.1-0.4,1.7-5.3,4.4-12.5c-2.8,1.8-5.8,2.9-9,3.3
				c-0.1,0-0.1,0-0.2,0c-3.2,0.2-6.1,0-8.7-0.7c-6.7,10.9-16,16.3-26.7,15c-8.1-1-14.3-4.8-17.8-10.9c-5.8-9.9-4.5-25.6,3.7-45.4
				c4.5-10.8,10.9-18,19.2-21.4c10.9-4.5,20.8-0.4,21.2-0.2c0.3,0.1,0.5,0.2,0.7,0.4c2.3,0.5,4.3,1.7,6,3.6c7,7.9,4.5,25.8,2.4,35.8
				c-1.1,5.3-2.6,10.2-4.3,14.5c1.1,0.1,2.3,0.2,3.6,0.1c7.5-1,14.7-10.3,20.7-22l12.9-34.4c0.9-2.3,3.4-3.6,5.8-2.8
				c2.4,0.7,3.7,3.2,3.1,5.6c-0.2,0.6-0.5,1.8-0.9,3.4c5-4.6,9.9-7.1,14.9-7.4c10.7-0.7,16.1,3.5,18.6,7.2c4.9,7.2,4,18.6-2.8,33
				c-1.5,3.1-6.4,14.1-9.3,25.1c-0.7,2.7-0.3,4.9,1,5.8c1.5,1,4.1,0.5,6.7-1.3c3.2-2.2,15.3-13.6,36.7-67.4c0.9-2.4,3.6-3.5,6-2.6
				c2.4,0.9,3.6,3.5,2.7,5.9c-2,5.5-4.6,11.7-7.3,18.1c-6.5,15.6-16.4,39.2-12.1,45.4c0.3,0.4,1.2,1.6,4.9,1.5
				c7.2-1.2,18.4-15.9,24.5-26.4c1.6-5.8,13.2-45.6,39.3-43.6c8,0.6,13.9,4.2,16.6,10.1c3.7,8.1,0.7,19.5-8.2,31.2
				c-1.6,2-4.5,2.4-6.5,0.9c-2.1-1.6-2.5-4.5-0.9-6.5c7.8-10.3,8.8-18,7.1-21.7c-1.2-2.7-4.2-4.3-8.8-4.6
				c-19.4-1.4-29.6,36.8-29.7,37.2c-0.1,0.4-0.3,0.8-0.5,1.2c-1.7,3-17.1,29.6-31.8,31.6c-0.1,0-0.3,0-0.4,0
				c-7.5,0.3-11.3-2.8-13.2-5.4c-1.7-2.4-2.5-5.3-2.6-8.7c-3.8,5.5-7.3,9.4-10.5,11.6c-6,4.1-12.6,4.6-17.4,1.3
				c-4.6-3.2-6.4-9.3-4.7-15.8c3.1-11.8,8.4-23.4,9.9-26.7c5.1-10.9,6.4-19.6,3.6-23.8c-2.1-3.1-6.7-3.4-10.2-3.2
				c-11.1,0.8-24.2,23.5-33.7,46l-8.9,23.9C75.9-569.5,74.1-568.3,72.2-568.3z M42.9-639.8C36.7-639.6,28-636.4,22-622
				c-7,16.8-8.5,30-4.3,37.2c2.1,3.6,5.7,5.7,10.9,6.4c7.8,1,13.4-3.9,17.3-10.3c-4.6-4.3-7.5-11-8.2-19.9
				C37.1-617.3,38.9-631.3,42.9-639.8z M52.2-637.7c-3.3,4.8-8.3,25.9-2.9,37.8c0.3,0.7,0.7,1.4,1.1,2c1.7-4.6,2.8-8.9,3.3-11.4
				c2.8-13.1,2.7-24.5-0.2-27.7C53.3-637.3,52.9-637.6,52.2-637.7z"/>
		</g>
		<g>
			<path d="M274.7-569.3c-1.3,0-2.6-0.1-4-0.4c-7-1.4-12.2-5-15.4-10.5c-1.6-2.8-2.5-5.8-3-8.8c-7.5,9.3-19.3,18.8-36.1,19.4
				c-10,0.4-17.6-2.4-22.7-8.3c-8.9-10.5-5.7-26.6-5.6-27.3c0.5-2.5,3-4.1,5.5-3.6c2.5,0.5,4.2,3,3.6,5.5c0,0.2-2.4,12.5,3.6,19.4
				c3.1,3.6,8.2,5.3,15.2,5c25.8-1,37.8-29.6,38.4-31.3c0.8-2.3,9.2-26,27.5-35.8c9.6-5.1,19.7-5.1,27,0.1c7.1,5,10.4,14,8.8,24
				c-2.4,15.1-13.9,37.5-28.4,47.5C284.3-571,279.4-569.3,274.7-569.3z M263.1-607.2C263.1-607.2,263.1-607.2,263.1-607.2
				c-1.3,3.9-3.7,15.4,0.3,22.3c1.8,3.2,4.8,5.1,9.2,6c3.4,0.7,7.2-0.4,11.3-3.2c11.8-8.2,22.4-28.3,24.4-41.3c1-6.5-0.8-12-5-15
				c-4.4-3.1-10.7-2.9-17.2,0.5C270.7-629.5,263.2-607.5,263.1-607.2z"/>
		</g>
		<g>
			<path d="M315-569.5c-1,0-2-0.1-3-0.4c-4-1-7-3.4-8.7-7.2c-7.8-16.9,14-60.3,16.5-65.2c1.2-2.3,4-3.2,6.3-2c2.3,1.2,3.2,4,2,6.3
				c-8.7,16.9-20.8,47.4-16.3,57c0.5,1.2,1.2,1.8,2.4,2c6.9,1.7,21.1-15.9,28.7-29.2c1.3-2.2,4.1-3,6.4-1.8c2.2,1.3,3,4.1,1.8,6.3
				C347.6-597.6,330.8-569.5,315-569.5z"/>
		</g>
		<g>
			<path d="M350.3-569.9c-3.8,0-7.2-1.3-9.8-3.9c-5.6-5.6-5.8-15.5-0.6-27.2c3.3-7.5,27.2-70.6,27.5-71.2c0.9-2.4,3.6-3.6,6-2.7
				c2.4,0.9,3.6,3.6,2.7,6c-1,2.6-24.2,64-27.7,71.7c-4.1,9.3-3.3,14.9-1.3,16.9c2.1,2.1,6.1,0.8,7.7,0.1
				c12.3-5.2,23.1-24.8,26.3-31.9c1-2.4,3.8-3.4,6.2-2.4c2.4,1,3.4,3.8,2.4,6.1c-0.5,1.2-13,29-31.1,36.7
				C355.7-570.5,352.9-569.9,350.3-569.9z"/>
		</g>
		<g>
			<path d="M375.1-642.6c-0.1,0-0.1,0-0.2,0l-26.6-1.2c-2.6-0.1-4.6-2.3-4.5-4.9c0.1-2.6,2.3-4.6,4.9-4.4l26.6,1.2
				c2.6,0.1,4.6,2.3,4.5,4.9C379.6-644.6,377.6-642.6,375.1-642.6z"/>
		</g>
		<ellipse cx="180.3" cy="-664.5" rx="7.3" ry="7.3"/>
	</g>
	<rect x="-1102.9" y="-649.1" class="st6" width="262.7" height="262.7"/>
	<g>
		<g>
			<g>
				<g>
					<rect x="-1023.4" y="-465.8" class="st5" width="8.7" height="0.8"/>
				</g>
				<g>
					<rect x="-929" y="-465.8" class="st5" width="8.7" height="0.8"/>
				</g>
			</g>
			<g>
				<g>
					<path class="st5" d="M-1032.2-476.6c-4.5,0-9.7-1.7-12.6-4.2c-1.3,2-3.4,3.3-6.1,3.7c-2.6,0.4-4.7-0.4-5.9-2.1
						c-1.1-1.5-1.2-3.6-0.3-5.3c0.9-1.6,2.4-2.7,4.4-3c2-0.3,4.2,0.2,6.3,1.3c1-4.3,2-8,3.1-11.1l0,0l1.4-3.7l0,0
						c3.9-9.6,7.5-12.1,7.7-12.2c0.8-0.5,1.8-0.3,2.3,0.5c0.5,0.7,0.3,1.7-0.4,2.3c-0.1,0.1-3,2.3-6.2,10.2c0.2,0,0.3,0.1,0.5,0.1
						c0.7,0.1,1.3,0.2,2,0.3c2.9,0.3,6.4,0.2,9-1.5c1.8-1.1,2.9-2.9,3.4-5.3c0.7-3.2-0.2-6.3-2.3-8.7c-2.6-3-6.9-4.6-11.5-4.2
						c-6,0.5-12,4.8-14,10c-1.1,2.9-1.4,7.2,3,11.8c0.6,0.6,0.6,1.7,0,2.3c-0.6,0.6-1.7,0.6-2.3,0c-4.4-4.5-5.7-9.9-3.7-15.2
						c2.5-6.5,9.5-11.6,16.8-12.2c5.6-0.4,10.9,1.5,14.2,5.3c2.8,3.2,3.9,7.3,3,11.5c-0.7,3.3-2.3,5.8-4.9,7.4
						c-0.8,0.5-1.6,0.9-2.5,1.2c3.4,1.7,5.2,3.9,6,5.8c1.9,4,0.7,8.5-1.3,11.3c-1.6,2.2-4.3,3.5-7.7,3.8
						C-1031.3-476.7-1031.7-476.6-1032.2-476.6z M-1043.5-484.2c0.2,0.1,0.3,0.3,0.5,0.4c2.1,2.1,7.4,4.1,11.9,3.8
						c1.7-0.1,4-0.7,5.3-2.5c1.1-1.4,2.5-4.7,1-7.9c-1.1-2.3-4.1-5.2-11.8-6.4c-0.7-0.1-1.3-0.2-1.9-0.3c-0.4,0-0.9-0.1-1.3-0.1
						C-1041.2-493.7-1042.4-489.4-1043.5-484.2z M-1051.5-484.4c-0.2,0-0.5,0-0.7,0c-0.7,0.1-1.6,0.4-2,1.3
						c-0.3,0.6-0.3,1.4,0.1,1.9c0.5,0.7,1.5,0.9,2.8,0.7c1.9-0.3,3.3-1.2,4.1-2.6C-1048.9-484-1050.4-484.4-1051.5-484.4z"/>
				</g>
				<g>
					<path class="st5" d="M-996.8-477.9c-0.2,0-0.4,0-0.5-0.1c-0.8-0.3-1.3-1.2-1-2c0-0.1,0.6-1.9,1.5-4.4c-1,0.6-2,1-3.2,1.2
						c0,0-0.1,0-0.1,0c-1.1,0.1-2.1,0-3-0.3c-2.4,3.8-5.6,5.7-9.4,5.3c-2.8-0.4-5-1.7-6.2-3.8c-2-3.5-1.6-9,1.3-15.9
						c1.6-3.8,3.8-6.3,6.7-7.5c3.8-1.6,7.3-0.1,7.4-0.1c0.1,0,0.2,0.1,0.3,0.1c0.8,0.2,1.5,0.6,2.1,1.3c2.5,2.8,1.6,9.1,0.8,12.6
						c-0.4,1.9-0.9,3.6-1.5,5.1c0.4,0,0.8,0.1,1.3,0c2.6-0.3,5.1-3.6,7.2-7.7l4.5-12.1c0.3-0.8,1.2-1.2,2-1c0.8,0.3,1.3,1.1,1.1,2
						c-0.1,0.2-0.2,0.6-0.3,1.2c1.7-1.6,3.5-2.5,5.2-2.6c3.8-0.3,5.6,1.2,6.5,2.5c1.7,2.5,1.4,6.5-1,11.6c-0.5,1.1-2.3,4.9-3.3,8.8
						c-0.2,0.9-0.1,1.7,0.3,2c0.5,0.4,1.4,0.2,2.3-0.5c1.1-0.8,5.3-4.8,12.8-23.7c0.3-0.8,1.3-1.2,2.1-0.9c0.8,0.3,1.3,1.2,1,2.1
						c-0.7,1.9-1.6,4.1-2.5,6.4c-2.3,5.5-5.7,13.8-4.2,15.9c0.1,0.1,0.4,0.6,1.7,0.5c2.5-0.4,6.5-5.6,8.6-9.3
						c0.5-2,4.6-16,13.7-15.3c2.8,0.2,4.9,1.5,5.8,3.5c1.3,2.9,0.2,6.8-2.9,10.9c-0.5,0.7-1.6,0.9-2.3,0.3c-0.7-0.5-0.9-1.6-0.3-2.3
						c2.7-3.6,3.1-6.3,2.5-7.6c-0.4-1-1.5-1.5-3.1-1.6c-6.8-0.5-10.4,12.9-10.4,13.1c0,0.1-0.1,0.3-0.2,0.4
						c-0.6,1.1-6,10.4-11.1,11.1c0,0-0.1,0-0.1,0c-2.6,0.1-4-1-4.6-1.9c-0.6-0.8-0.9-1.9-0.9-3c-1.3,1.9-2.6,3.3-3.7,4.1
						c-2.1,1.4-4.4,1.6-6.1,0.4c-1.6-1.1-2.2-3.3-1.6-5.6c1.1-4.1,2.9-8.2,3.5-9.4c1.8-3.8,2.3-6.9,1.2-8.4
						c-0.7-1.1-2.4-1.2-3.6-1.1c-3.9,0.3-8.5,8.2-11.8,16.1l-3.1,8.4C-995.6-478.3-996.2-477.9-996.8-477.9z M-1007.1-503
						c-2.2,0.1-5.2,1.2-7.3,6.2c-2.4,5.9-3,10.5-1.5,13c0.7,1.3,2,2,3.8,2.2c2.7,0.3,4.7-1.4,6.1-3.6c-1.6-1.5-2.6-3.9-2.9-7
						C-1009.1-495.1-1008.5-500-1007.1-503z M-1003.8-502.2c-1.2,1.7-2.9,9.1-1,13.3c0.1,0.3,0.2,0.5,0.4,0.7c0.6-1.6,1-3.1,1.2-4
						c1-4.6,0.9-8.6-0.1-9.7C-1003.5-502.1-1003.6-502.2-1003.8-502.2z"/>
				</g>
				<g>
					<path class="st5" d="M-926-478.2c-0.5,0-0.9,0-1.4-0.1c-2.5-0.5-4.3-1.7-5.4-3.7c-0.6-1-0.9-2-1.1-3.1
						c-2.6,3.2-6.8,6.6-12.6,6.8c-3.5,0.1-6.2-0.8-7.9-2.9c-3.1-3.7-2-9.3-2-9.6c0.2-0.9,1-1.5,1.9-1.3c0.9,0.2,1.5,1,1.3,1.9
						c0,0.1-0.8,4.4,1.3,6.8c1.1,1.3,2.9,1.9,5.3,1.8c9-0.4,13.2-10.4,13.4-11c0.3-0.8,3.2-9.1,9.6-12.5c3.4-1.8,6.9-1.8,9.4,0
						c2.5,1.8,3.6,4.9,3.1,8.4c-0.8,5.3-4.9,13.2-9.9,16.7C-922.6-478.8-924.3-478.2-926-478.2z M-930-491.5
						C-930-491.5-930-491.5-930-491.5c-0.4,1.4-1.3,5.4,0.1,7.8c0.6,1.1,1.7,1.8,3.2,2.1c1.2,0.2,2.5-0.1,3.9-1.1
						c4.1-2.9,7.8-9.9,8.6-14.5c0.4-2.3-0.3-4.2-1.7-5.3c-1.5-1.1-3.7-1-6,0.2C-927.4-499.4-930-491.6-930-491.5z"/>
				</g>
				<g>
					<path class="st5" d="M-911.9-478.3c-0.4,0-0.7,0-1-0.1c-1.4-0.3-2.4-1.2-3.1-2.5c-2.7-5.9,4.9-21.2,5.8-22.9
						c0.4-0.8,1.4-1.1,2.2-0.7c0.8,0.4,1.1,1.4,0.7,2.2c-3,5.9-7.3,16.6-5.7,20c0.2,0.4,0.4,0.6,0.8,0.7c2.4,0.6,7.4-5.6,10-10.3
						c0.4-0.8,1.4-1.1,2.2-0.6c0.8,0.4,1.1,1.4,0.6,2.2C-900.5-488.1-906.4-478.3-911.9-478.3z"/>
				</g>
				<g>
					<path class="st5" d="M-899.5-478.4c-1.3,0-2.5-0.5-3.4-1.4c-1.9-2-2-5.5-0.2-9.6c1.2-2.6,9.5-24.8,9.6-25
						c0.3-0.8,1.3-1.3,2.1-1c0.8,0.3,1.3,1.3,1,2.1c-0.3,0.9-8.5,22.5-9.7,25.2c-1.4,3.3-1.2,5.2-0.5,5.9c0.7,0.7,2.1,0.3,2.7,0
						c4.3-1.8,8.1-8.7,9.2-11.2c0.4-0.8,1.3-1.2,2.2-0.8c0.8,0.4,1.2,1.3,0.8,2.2c-0.2,0.4-4.5,10.2-10.9,12.9
						C-897.7-478.6-898.6-478.4-899.5-478.4z"/>
				</g>
				<g>
					<path class="st5" d="M-890.9-504C-890.9-504-890.9-504-890.9-504l-9.4-0.4c-0.9,0-1.6-0.8-1.6-1.7c0-0.9,0.8-1.6,1.7-1.6
						l9.3,0.4c0.9,0,1.6,0.8,1.6,1.7C-889.3-504.6-890-504-890.9-504z"/>
				</g>
				<circle class="st5" cx="-959" cy="-511.6" r="2.6"/>
			</g>
			<g>
				<g>
					<path class="st5" d="M-1032-476.6c-4.5,0-9.7-1.7-12.6-4.2c-1.3,2-3.4,3.3-6.1,3.7c-2.6,0.4-4.7-0.4-5.9-2.1
						c-1.1-1.5-1.2-3.6-0.3-5.3c0.9-1.6,2.4-2.7,4.4-3c2-0.3,4.2,0.2,6.3,1.3c1-4.3,2-8,3.1-11.1l0,0l1.4-3.7l0,0
						c3.9-9.6,7.5-12.1,7.7-12.2c0.8-0.5,1.8-0.3,2.3,0.5c0.5,0.7,0.3,1.7-0.4,2.3c-0.1,0.1-3,2.3-6.2,10.2c0.2,0,0.3,0.1,0.5,0.1
						c0.7,0.1,1.3,0.2,2,0.3c2.9,0.3,6.4,0.2,9-1.5c1.8-1.1,2.9-2.9,3.4-5.3c0.7-3.2-0.2-6.3-2.3-8.7c-2.6-3-6.9-4.6-11.5-4.2
						c-6,0.5-12,4.8-14,10c-1.1,2.9-1.4,7.2,3,11.8c0.6,0.6,0.6,1.7,0,2.3c-0.6,0.6-1.7,0.6-2.3,0c-4.4-4.5-5.7-9.9-3.7-15.2
						c2.5-6.5,9.5-11.6,16.8-12.2c5.6-0.4,10.9,1.5,14.2,5.3c2.8,3.2,3.9,7.3,3,11.5c-0.7,3.3-2.3,5.8-4.9,7.4
						c-0.8,0.5-1.6,0.9-2.5,1.2c3.4,1.7,5.2,3.9,6,5.8c1.9,4,0.7,8.5-1.3,11.3c-1.6,2.2-4.3,3.5-7.7,3.8
						C-1031.2-476.7-1031.6-476.6-1032-476.6z M-1043.4-484.2c0.2,0.1,0.3,0.3,0.5,0.4c2.1,2.1,7.4,4.1,11.9,3.8
						c1.7-0.1,4-0.7,5.3-2.5c1.1-1.4,2.5-4.7,1-7.9c-1.1-2.3-4.1-5.2-11.8-6.4c-0.7-0.1-1.3-0.2-1.9-0.3c-0.4,0-0.9-0.1-1.3-0.1
						C-1041-493.7-1042.2-489.4-1043.4-484.2z M-1051.4-484.4c-0.2,0-0.5,0-0.7,0c-0.7,0.1-1.6,0.4-2,1.3c-0.3,0.6-0.3,1.4,0.1,1.9
						c0.5,0.7,1.5,0.9,2.8,0.7c1.9-0.3,3.3-1.2,4.1-2.6C-1048.7-484-1050.2-484.4-1051.4-484.4z"/>
				</g>
				<g>
					<path class="st5" d="M-996.7-477.9c-0.2,0-0.4,0-0.5-0.1c-0.8-0.3-1.3-1.2-1-2c0-0.1,0.6-1.9,1.5-4.4c-1,0.6-2,1-3.2,1.2
						c0,0-0.1,0-0.1,0c-1.1,0.1-2.1,0-3-0.3c-2.4,3.8-5.6,5.7-9.4,5.3c-2.8-0.4-5-1.7-6.2-3.8c-2-3.5-1.6-9,1.3-15.9
						c1.6-3.8,3.8-6.3,6.7-7.5c3.8-1.6,7.3-0.1,7.4-0.1c0.1,0,0.2,0.1,0.3,0.1c0.8,0.2,1.5,0.6,2.1,1.3c2.5,2.8,1.6,9.1,0.8,12.6
						c-0.4,1.9-0.9,3.6-1.5,5.1c0.4,0,0.8,0.1,1.3,0c2.6-0.3,5.1-3.6,7.2-7.7l4.5-12.1c0.3-0.8,1.2-1.2,2-1c0.8,0.3,1.3,1.1,1.1,2
						c-0.1,0.2-0.2,0.6-0.3,1.2c1.7-1.6,3.5-2.5,5.2-2.6c3.8-0.3,5.6,1.2,6.5,2.5c1.7,2.5,1.4,6.5-1,11.6c-0.5,1.1-2.3,4.9-3.3,8.8
						c-0.2,0.9-0.1,1.7,0.3,2c0.5,0.4,1.4,0.2,2.3-0.5c1.1-0.8,5.3-4.8,12.8-23.7c0.3-0.8,1.3-1.2,2.1-0.9c0.8,0.3,1.3,1.2,1,2.1
						c-0.7,1.9-1.6,4.1-2.5,6.4c-2.3,5.5-5.7,13.8-4.2,15.9c0.1,0.1,0.4,0.6,1.7,0.5c2.5-0.4,6.5-5.6,8.6-9.3
						c0.5-2,4.6-16,13.7-15.3c2.8,0.2,4.9,1.5,5.8,3.5c1.3,2.9,0.2,6.8-2.9,10.9c-0.5,0.7-1.6,0.9-2.3,0.3c-0.7-0.5-0.9-1.6-0.3-2.3
						c2.7-3.6,3.1-6.3,2.5-7.6c-0.4-1-1.5-1.5-3.1-1.6c-6.8-0.5-10.4,12.9-10.4,13.1c0,0.1-0.1,0.3-0.2,0.4
						c-0.6,1.1-6,10.4-11.1,11.1c0,0-0.1,0-0.1,0c-2.6,0.1-4-1-4.6-1.9c-0.6-0.8-0.9-1.9-0.9-3c-1.3,1.9-2.6,3.3-3.7,4.1
						c-2.1,1.4-4.4,1.6-6.1,0.4c-1.6-1.1-2.2-3.3-1.6-5.6c1.1-4.1,2.9-8.2,3.5-9.4c1.8-3.8,2.3-6.9,1.2-8.4
						c-0.7-1.1-2.4-1.2-3.6-1.1c-3.9,0.3-8.5,8.2-11.8,16.1l-3.1,8.4C-995.4-478.3-996-477.9-996.7-477.9z M-1007-503
						c-2.2,0.1-5.2,1.2-7.3,6.2c-2.4,5.9-3,10.5-1.5,13c0.7,1.3,2,2,3.8,2.2c2.7,0.3,4.7-1.4,6.1-3.6c-1.6-1.5-2.6-3.9-2.9-7
						C-1009-495.1-1008.4-500-1007-503z M-1003.7-502.2c-1.2,1.7-2.9,9.1-1,13.3c0.1,0.3,0.2,0.5,0.4,0.7c0.6-1.6,1-3.1,1.2-4
						c1-4.6,0.9-8.6-0.1-9.7C-1003.3-502.1-1003.4-502.2-1003.7-502.2z"/>
				</g>
				<g>
					<path class="st5" d="M-925.9-478.2c-0.5,0-0.9,0-1.4-0.1c-2.5-0.5-4.3-1.7-5.4-3.7c-0.6-1-0.9-2-1.1-3.1
						c-2.6,3.2-6.8,6.6-12.6,6.8c-3.5,0.1-6.2-0.8-7.9-2.9c-3.1-3.7-2-9.3-2-9.6c0.2-0.9,1-1.5,1.9-1.3c0.9,0.2,1.5,1,1.3,1.9
						c0,0.1-0.8,4.4,1.3,6.8c1.1,1.3,2.9,1.9,5.3,1.8c9-0.4,13.2-10.4,13.4-11c0.3-0.8,3.2-9.1,9.6-12.5c3.4-1.8,6.9-1.8,9.4,0
						c2.5,1.8,3.6,4.9,3.1,8.4c-0.8,5.3-4.9,13.2-9.9,16.7C-922.5-478.8-924.2-478.2-925.9-478.2z M-929.9-491.5
						C-929.9-491.5-929.9-491.5-929.9-491.5c-0.4,1.4-1.3,5.4,0.1,7.8c0.6,1.1,1.7,1.8,3.2,2.1c1.2,0.2,2.5-0.1,3.9-1.1
						c4.1-2.9,7.8-9.9,8.6-14.5c0.4-2.3-0.3-4.2-1.7-5.3c-1.5-1.1-3.7-1-6,0.2C-927.2-499.4-929.9-491.6-929.9-491.5z"/>
				</g>
				<g>
					<path class="st5" d="M-911.7-478.3c-0.4,0-0.7,0-1-0.1c-1.4-0.3-2.4-1.2-3.1-2.5c-2.7-5.9,4.9-21.2,5.8-22.9
						c0.4-0.8,1.4-1.1,2.2-0.7c0.8,0.4,1.1,1.4,0.7,2.2c-3,5.9-7.3,16.6-5.7,20c0.2,0.4,0.4,0.6,0.8,0.7c2.4,0.6,7.4-5.6,10-10.3
						c0.4-0.8,1.4-1.1,2.2-0.6c0.8,0.4,1.1,1.4,0.6,2.2C-900.3-488.1-906.2-478.3-911.7-478.3z"/>
				</g>
				<g>
					<path class="st5" d="M-899.4-478.4c-1.3,0-2.5-0.5-3.4-1.4c-1.9-2-2-5.5-0.2-9.6c1.2-2.6,9.5-24.8,9.6-25
						c0.3-0.8,1.3-1.3,2.1-1c0.8,0.3,1.3,1.3,1,2.1c-0.3,0.9-8.5,22.5-9.7,25.2c-1.4,3.3-1.2,5.2-0.5,5.9c0.7,0.7,2.1,0.3,2.7,0
						c4.3-1.8,8.1-8.7,9.2-11.2c0.4-0.8,1.3-1.2,2.2-0.8c0.8,0.4,1.2,1.3,0.8,2.2c-0.2,0.4-4.5,10.2-10.9,12.9
						C-897.5-478.6-898.5-478.4-899.4-478.4z"/>
				</g>
				<g>
					<path class="st5" d="M-890.7-504C-890.8-504-890.8-504-890.7-504l-9.4-0.4c-0.9,0-1.6-0.8-1.6-1.7c0-0.9,0.8-1.6,1.7-1.6
						l9.3,0.4c0.9,0,1.6,0.8,1.6,1.7C-889.1-504.6-889.9-504-890.7-504z"/>
				</g>
				<circle class="st5" cx="-958.9" cy="-511.6" r="2.6"/>
			</g>
			<text transform="matrix(1 0 0 1 -1009.7388 -459.2202)" class="st5" style="font-family:'Abel-Regular'; font-size:17.9279px;">creations</text>
		</g>
		<g class="st7">
			<path class="st5" d="M-980-552.8c11.2-19.9,6.3-28.3,4.1-28.8c-1.7-0.4-9,3.3-9.3,26.3c-0.6-0.1-1.2-0.2-1.9-0.2h-6.4
				c-0.7,0-1.3,0.1-2,0.2c-0.3-23.1-7.6-26.8-9.3-26.3c-2.2,0.5-7.1,8.9,4.1,28.9c-2.4,2-3.9,5-3.9,8.3c0,6.1,5,11,11,11h6.4
				c6.1,0,11-5,11-11C-976-547.7-977.6-550.7-980-552.8z"/>
			<path class="st5" d="M-936.6-549C-936.6-549-936.6-549-936.6-549c0,0,0.9-11.2-1.5-12c-1.8-0.6-5.5,3.7-7.2,5.7
				c-0.4-0.1-0.9-0.1-1.3-0.1h-6.4c-0.5,0-0.9,0.1-1.3,0.1c-1.7-2.1-5.4-6.4-7.2-5.7c-2.3,0.8-1.5,12-1.5,12s0,0,0,0
				c-0.7,1.4-1.1,3-1.1,4.7c0,6.1,5,11,11,11h6.4c6.1,0,11-5,11-11C-935.5-546-935.9-547.6-936.6-549z"/>
		</g>
	</g>
	
		<text transform="matrix(1 0 0 1 1.2707 -82.9303)" style="fill:#84A59D; font-family:'KittenSwashMonoline'; font-size:74.4658px;">le poterie</text>
	<path class="st8" d="M278.4-90.1c-5.5-1.3-10.4-10.8,7.5-23.4C295.1-90.5,283.9-88.9,278.4-90.1z"/>
	<path class="st8" d="M284-101.8c0,0-6.8,27.4-28.1,13.1c-13.6-9.1-22.3-1.6-22.5,2.1"/>
	<linearGradient id="SVGID_1_" gradientUnits="userSpaceOnUse" x1="491.3102" y1="-347.3613" x2="271.5207" y2="-288.7508">
		<stop  offset="0" style="stop-color:#DF3C8F"/>
		<stop  offset="1" style="stop-color:#60348C"/>
	</linearGradient>
	<rect x="220.8" y="-357.2" class="st9" width="290.8" height="86.4"/>
	<text transform="matrix(1 0 0 1 0.3843 -205.5018)" class="st5" style="font-family:'BalooThambi-Regular'; font-size:52.7181px;">StickyNotes</text>
	<g>
		<g>
			<path d="M90.6,19.3H97L86.6,47.1h-4.8L71.5,19.3h6.4L84.2,37L90.6,19.3z"/>
			<path d="M127.8,32.8c0,7.8-6.4,14.2-14.3,14.2c-7.8,0-14.2-6.4-14.2-14.2c0-7.9,6.4-14.3,14.2-14.3
				C121.3,18.5,127.8,25,127.8,32.8z M121.7,32.8c0-4.5-3.7-8.2-8.2-8.2c-4.5,0-8.1,3.7-8.1,8.2c0,4.5,3.7,8.1,8.1,8.1
				C118,41,121.7,37.3,121.7,32.8z"/>
			<path d="M131.3,19.3h9.6c5.5,0,10.1,4.5,10.1,10.1c0,4.2-2.6,7.8-6.3,9.3l5.3,8.3h-6.9l-4.6-7.5h-1.2V47h-5.9V19.3z M137.2,33.5
				h3.7c2.3,0,4.1-1.9,4.1-4.1c0-2.3-1.9-4.1-4.1-4.1h-3.7V33.5z"/>
			<path d="M177.1,19.3v5.9h-8.4v21.8h-5.9V25.3h-8.4v-5.9H177.1z"/>
			<path d="M181.3,19.3h20.6v5.9h-14.7v5h8.7v5.9h-8.7v5h14.7v5.9h-20.6V19.3z"/>
			<path class="st10" d="M233.2,19.3l-9.5,15l9.5,12.7h-7.4l-5.8-7.7l-5.8,7.7h-7.4l9.5-12.7l-9.6-15h7.3l6,10.1l5.8-10.1H233.2z"/>
		</g>
		<g>
			<path d="M30.1,1.9L0,32l30.1,30.1L60.2,32L30.1,1.9z M30,55.4L6.7,32.1L30.2,8.6l23.3,23.3L30,55.4z"/>
			<path d="M30.1,13.8L12,32l18.2,18.2L48.3,32L30.1,13.8z M30,44.2L17.9,32l12.3-12.3l12.1,12.1L30,44.2z"/>
			
				<rect x="24.6" y="26.5" transform="matrix(-0.7071 -0.7071 0.7071 -0.7071 28.7831 75.8868)" class="st10" width="11" height="11"/>
		</g>
	</g>
</g>
</svg>
